<?xml version="1.0" encoding="UTF-8" standalone="no"?><svg xmlns="http://www.w3.org/2000/svg" xmlns:xlink="http://www.w3.org/1999/xlink" contentScriptType="application/ecmascript" contentStyleType="text/css" height="466px" preserveAspectRatio="none" style="width:926px;height:466px;background:#D3D3D3;" version="1.1" viewBox="0 0 926 466" width="926px" zoomAndPan="magnify"><defs><filter height="300%" id="f1fjeufzcwprsz" width="300%" x="-1" y="-1"><feGaussianBlur result="blurOut" stdDeviation="2.0"/><feColorMatrix in="blurOut" result="blurOut2" type="matrix" values="0 0 0 0 0 0 0 0 0 0 0 0 0 0 0 0 0 0 .4 0"/><feOffset dx="4.0" dy="4.0" in="blurOut2" result="blurOut3"/><feBlend in="SourceGraphic" in2="blurOut3" mode="normal"/></filter></defs><g><text fill="#000000" font-family="sans-serif" font-size="18" lengthAdjust="spacing" textLength="229" x="342.0932" y="16.708">OpenSearch CI Overview</text><!--MD5=[df9f4a4420b4dc75546d361d62c70258]
cluster Amazon Web Services--><path d="M50.1686,199.8947 C62.7212,172.6686 78.5815,172.0452 97.9809,193.1167 C112.4035,169.0376 129.9077,174.2992 143.0955,194.3783 C158.6687,166.5838 178.1319,166.7517 198.6055,188.9353 C212.531,169.0445 234.2082,169.8928 244.405,192.9149 C257.2976,170.4486 278.4782,167.1878 296.1046,187.1462 C311.2576,165.8841 326.1395,163.3371 344.7371,183.0589 C362.9791,160.8273 377.9058,162.3733 394.0822,185.3153 C407.9994,157.6387 431.2351,156.5671 446.4848,184.0495 C458.2143,163.5689 479.0184,167.4835 489.4237,185.5255 C507.826,162.2074 529.853,159.6856 544.2093,189.683 C558.1344,167.4683 581.9767,170.7957 592.7871,193.083 C607.6406,166.5905 625.6842,167.0907 644.2598,189.1359 C659.2155,172.1194 679.6321,173.4563 689.0804,195.4617 C708.2313,171.1117 727.9524,170.7076 743.1863,199.4531 C748.5286,197.2515 751.9856,200.6406 751.4234,205.9384 C774.4883,218.2771 778.6304,233.2777 756.938,251.0836 C776.0197,280.4066 767.9119,298.1932 736.1863,309.4531 C738.3634,308.3006 740.039,309.0584 739.9179,311.7084 C726.4301,339.7024 707.724,340.2167 689.7614,316.0078 C677.9724,340.4689 652.3427,341.3292 637.2162,319.8228 C619.939,340.5555 600.4895,339.0514 587.7564,314.8238 C576.1692,335.6807 555.7636,337.7237 542.591,316.5265 C529.837,345.586 508.2484,344.7043 489.884,322.2687 C475.6601,344.3492 462.3818,340.8431 447.7045,322.7447 C432.0036,354.884 414.1876,358.2864 391.0886,329.6349 C377.062,350.2212 355.0835,349.5666 346.5758,324.2797 C330.2042,347.4738 312.6904,343.319 298.3412,322.0841 C283.1709,345.3349 261.2492,345.1944 245.8975,322.2902 C229.5187,344.2653 212.8283,341.7624 198.4293,320.1349 C180.7114,344.7832 153.8286,342.4248 142.471,313.4924 C131.6904,332.377 112.4829,335.4725 98.6865,317.0298 C73.9689,342.0807 47.0695,336.7198 36.1863,302.4531 C39.8103,303.2029 39.9451,305.0341 38.2098,307.8087 C15.8978,292.4341 15.552,271.8953 40.4748,258.6993 C11.9887,239.0547 6,209.4098 43.1863,192.4531 C48.6926,191.8647 51.8608,193.729 50.1686,199.8947 " fill="#D3D3D3" filter="url(#f1fjeufzcwprsz)" style="stroke:#000000;stroke-width:1.5;"/><text fill="#000000" font-family="sans-serif" font-size="14" font-weight="bold" lengthAdjust="spacing" textLength="176" x="301.6863" y="210.4482">Amazon Web Services</text><!--MD5=[201c4c264cab2ea339fbf09154019f28]
entity dash--><rect fill="#FEFECE" filter="url(#f1fjeufzcwprsz)" height="62.5938" style="stroke:#A80036;stroke-width:1.5;" width="124" x="44.1863" y="238.4531"/><rect fill="#FEFECE" height="10" style="stroke:#A80036;stroke-width:1.5;" width="15" x="148.1863" y="243.4531"/><rect fill="#FEFECE" height="2" style="stroke:#A80036;stroke-width:1.5;" width="4" x="146.1863" y="245.4531"/><rect fill="#FEFECE" height="2" style="stroke:#A80036;stroke-width:1.5;" width="4" x="146.1863" y="249.4531"/><text fill="#000000" font-family="sans-serif" font-size="14" lengthAdjust="spacing" textLength="84" x="59.1863" y="271.4482">Dashboards</text><text fill="#000000" font-family="sans-serif" font-size="14" lengthAdjust="spacing" textLength="83" x="59.1863" y="287.7451">Cloudwatch</text><!--MD5=[7d4235ffbbcb530a1220851caa7a7138]
entity alarms--><rect fill="#FEFECE" filter="url(#f1fjeufzcwprsz)" height="62.5938" style="stroke:#A80036;stroke-width:1.5;" width="123" x="611.6863" y="238.4531"/><rect fill="#FEFECE" height="10" style="stroke:#A80036;stroke-width:1.5;" width="15" x="714.6863" y="243.4531"/><rect fill="#FEFECE" height="2" style="stroke:#A80036;stroke-width:1.5;" width="4" x="712.6863" y="245.4531"/><rect fill="#FEFECE" height="2" style="stroke:#A80036;stroke-width:1.5;" width="4" x="712.6863" y="249.4531"/><text fill="#000000" font-family="sans-serif" font-size="14" lengthAdjust="spacing" textLength="49" x="626.6863" y="271.4482">Alarms</text><text fill="#000000" font-family="sans-serif" font-size="14" lengthAdjust="spacing" textLength="83" x="626.6863" y="287.7451">Cloudwatch</text><!--MD5=[e7de2c71ca0f205b4cc16dd2e14b005b]
entity j--><rect fill="#FEFECE" filter="url(#f1fjeufzcwprsz)" height="62.5938" style="stroke:#A80036;stroke-width:1.5;" width="91" x="203.6863" y="238.4531"/><rect fill="#FEFECE" height="10" style="stroke:#A80036;stroke-width:1.5;" width="15" x="274.6863" y="243.4531"/><rect fill="#FEFECE" height="2" style="stroke:#A80036;stroke-width:1.5;" width="4" x="272.6863" y="245.4531"/><rect fill="#FEFECE" height="2" style="stroke:#A80036;stroke-width:1.5;" width="4" x="272.6863" y="249.4531"/><text fill="#000000" font-family="sans-serif" font-size="14" lengthAdjust="spacing" textLength="51" x="218.6863" y="271.4482">Jenkins</text><text fill="#000000" font-family="sans-serif" font-size="14" lengthAdjust="spacing" textLength="49" x="218.6863" y="287.7451">on EC2</text><!--MD5=[9b50232802efdec09056d2fe94d4716d]
entity artifacts--><rect fill="#FEFECE" filter="url(#f1fjeufzcwprsz)" height="62.5938" style="stroke:#A80036;stroke-width:1.5;" width="142" x="434.1863" y="238.4531"/><rect fill="#FEFECE" height="10" style="stroke:#A80036;stroke-width:1.5;" width="15" x="556.1863" y="243.4531"/><rect fill="#FEFECE" height="2" style="stroke:#A80036;stroke-width:1.5;" width="4" x="554.1863" y="245.4531"/><rect fill="#FEFECE" height="2" style="stroke:#A80036;stroke-width:1.5;" width="4" x="554.1863" y="249.4531"/><text fill="#000000" font-family="sans-serif" font-size="14" lengthAdjust="spacing" textLength="63" x="449.1863" y="271.4482">Artifacts</text><text fill="#000000" font-family="sans-serif" font-size="14" lengthAdjust="spacing" textLength="102" x="449.1863" y="287.7451">CloudFront/S3</text><!--MD5=[d94de7339830101782f7d1d85ee30a29]
entity GitHub--><rect fill="#FEFECE" filter="url(#f1fjeufzcwprsz)" height="46.2969" style="stroke:#A80036;stroke-width:1.5;" width="90" x="770.1863" y="246.9531"/><rect fill="#FEFECE" height="10" style="stroke:#A80036;stroke-width:1.5;" width="15" x="840.1863" y="251.9531"/><rect fill="#FEFECE" height="2" style="stroke:#A80036;stroke-width:1.5;" width="4" x="838.1863" y="253.9531"/><rect fill="#FEFECE" height="2" style="stroke:#A80036;stroke-width:1.5;" width="4" x="838.1863" y="257.9531"/><text fill="#000000" font-family="sans-serif" font-size="14" lengthAdjust="spacing" textLength="50" x="785.1863" y="279.9482">GitHub</text><!--MD5=[1e121ade9d645cab358596201674a87e]
entity Paging--><rect fill="#FEFECE" filter="url(#f1fjeufzcwprsz)" height="46.2969" style="stroke:#A80036;stroke-width:1.5;" width="88" x="526.1863" y="397.9531"/><rect fill="#FEFECE" height="10" style="stroke:#A80036;stroke-width:1.5;" width="15" x="594.1863" y="402.9531"/><rect fill="#FEFECE" height="2" style="stroke:#A80036;stroke-width:1.5;" width="4" x="592.1863" y="404.9531"/><rect fill="#FEFECE" height="2" style="stroke:#A80036;stroke-width:1.5;" width="4" x="592.1863" y="408.9531"/><text fill="#000000" font-family="sans-serif" font-size="14" lengthAdjust="spacing" textLength="48" x="541.1863" y="430.9482">Paging</text><!--MD5=[4166c2533998e538f16711cc7763c23c]
entity Dev--><ellipse cx="531.1863" cy="34.9531" fill="#FEFECE" filter="url(#f1fjeufzcwprsz)" rx="8" ry="8" style="stroke:#A80036;stroke-width:1.5;"/><path d="M531.1863,42.9531 L531.1863,69.9531 M518.1863,50.9531 L544.1863,50.9531 M531.1863,69.9531 L518.1863,84.9531 M531.1863,69.9531 L544.1863,84.9531 " fill="none" filter="url(#f1fjeufzcwprsz)" style="stroke:#A80036;stroke-width:1.5;"/><text fill="#000000" font-family="sans-serif" font-size="14" lengthAdjust="spacing" textLength="28" x="517.1863" y="103.4482">Dev</text><!--MD5=[b90713b5ddaea180d3429e7b1ef7c0f8]
entity Maintainer--><ellipse cx="311.1863" cy="389.9531" fill="#FEFECE" filter="url(#f1fjeufzcwprsz)" rx="8" ry="8" style="stroke:#A80036;stroke-width:1.5;"/><path d="M311.1863,397.9531 L311.1863,424.9531 M298.1863,405.9531 L324.1863,405.9531 M311.1863,424.9531 L298.1863,439.9531 M311.1863,424.9531 L324.1863,439.9531 " fill="none" filter="url(#f1fjeufzcwprsz)" style="stroke:#A80036;stroke-width:1.5;"/><text fill="#000000" font-family="sans-serif" font-size="14" lengthAdjust="spacing" textLength="76" x="273.1863" y="458.4482">Maintainer</text><!--MD5=[8d4f7f493ca84e3a01a585392823ef91]
link Dev to GitHub--><path d="M545.7543,71.3551 C583.2733,83.2501 684.9083,119.0601 751.1863,176.4531 C772.5963,194.9931 790.2893,222.2151 801.6043,242.3301 " fill="none" id="Dev-to-GitHub" style="stroke:#A80036;stroke-width:1.0;"/><polygon fill="#A80036" points="804.0613,246.7661,803.1997,236.955,801.6387,242.3922,796.2015,240.8312,804.0613,246.7661" style="stroke:#A80036;stroke-width:1.0;"/><text fill="#000000" font-family="sans-serif" font-size="13" lengthAdjust="spacing" textLength="177" x="741.1863" y="157.02">Create Issues/Pull Requests</text><!--MD5=[4b2781063d498af52785627e6edf1f98]
link Dev to j--><path d="M516.3973,70.7581 C486.0983,79.0491 415.6623,100.9031 366.1863,136.4531 C328.5363,163.5051 294.5783,204.7711 273.0663,234.0551 " fill="none" id="Dev-to-j" style="stroke:#A80036;stroke-width:1.0;"/><polygon fill="#A80036" points="269.9833,238.2851,278.517,233.3681,272.9284,234.2445,272.052,228.656,269.9833,238.2851" style="stroke:#A80036;stroke-width:1.0;"/><text fill="#000000" font-family="sans-serif" font-size="13" lengthAdjust="spacing" textLength="101" x="367.1863" y="157.02">See jobs/results</text><!--MD5=[5b478e9677d41eeb424f8f6463c2793f]
reverse link dash to Maintainer--><path d="M152.5343,304.6401 C188.9263,331.0911 238.9773,367.4692 273.0653,392.2459 " fill="none" id="dash-backto-Maintainer" style="stroke:#A80036;stroke-width:1.0;"/><polygon fill="#A80036" points="148.1653,301.4651,153.0931,309.9926,152.2096,304.4051,157.7971,303.5217,148.1653,301.4651" style="stroke:#A80036;stroke-width:1.0;"/><text fill="#000000" font-family="sans-serif" font-size="13" lengthAdjust="spacing" textLength="66" x="216.1863" y="346.52">Monitoring</text><!--MD5=[19fd760b612aa0fd632e00c77c879d02]
link alarms to Paging--><path d="M652.0943,301.4651 C633.4003,328.5081 606.3783,367.5979 588.5553,393.3806 " fill="none" id="alarms-to-Paging" style="stroke:#A80036;stroke-width:1.0;"/><polygon fill="#A80036" points="585.5573,397.7167,593.9656,392.5882,588.4006,393.6039,587.385,388.0389,585.5573,397.7167" style="stroke:#A80036;stroke-width:1.0;"/><text fill="#000000" font-family="sans-serif" font-size="13" lengthAdjust="spacing" textLength="80" x="628.1863" y="346.52">Detect issue</text><!--MD5=[1bcab032d2d5995f46a512e25f6fe1a4]
reverse link Maintainer to Paging--><path d="M354.4933,420.9531 C402.1273,420.9531 478.2593,420.9531 526.1723,420.9531 " fill="none" id="Maintainer-backto-Paging" style="stroke:#A80036;stroke-width:1.0;"/><polygon fill="#A80036" points="349.4023,420.9531,358.4023,424.9531,354.4023,420.9531,358.4023,416.9531,349.4023,420.9531" style="stroke:#A80036;stroke-width:1.0;"/><text fill="#000000" font-family="sans-serif" font-size="13" lengthAdjust="spacing" textLength="119" x="378.1863" y="414.02">Alert for resolution</text><!--MD5=[caa0f552083f786c0c3ef0b333d902d5]
link j to GitHub--><path d="M293.1953,238.3631 C337.2453,209.4101 408.2093,169.8091 477.1863,161.4531 C598.2613,146.7851 645.7933,115.0811 751.1863,176.4531 C776.3143,191.0851 793.7623,219.9941 804.0213,241.8141 " fill="none" id="j-to-GitHub" style="stroke:#A80036;stroke-width:1.0;"/><polygon fill="#A80036" points="806.2253,246.6331,806.1191,236.7848,804.1455,242.0862,798.844,240.1126,806.2253,246.6331" style="stroke:#A80036;stroke-width:1.0;"/><text fill="#000000" font-family="sans-serif" font-size="13" lengthAdjust="spacing" textLength="84" x="483.1863" y="149.52">Schedule/Pull</text><text fill="#000000" font-family="sans-serif" font-size="13" lengthAdjust="spacing" textLength="94" x="478.1863" y="164.6528">Request Builds</text><!--MD5=[a2eaa03cd57c52bed5165bd7f176ad81]
link j to artifacts--><path d="M294.9543,269.9531 C331.9913,269.9531 384.9583,269.9531 428.4603,269.9531 " fill="none" id="j-to-artifacts" style="stroke:#A80036;stroke-width:1.0;"/><polygon fill="#A80036" points="433.7163,269.9531,424.7163,265.9531,428.7163,269.9531,424.7163,273.9531,433.7163,269.9531" style="stroke:#A80036;stroke-width:1.0;"/><text fill="#000000" font-family="sans-serif" font-size="13" lengthAdjust="spacing" textLength="103" x="312.9363" y="263.02">Save builds/logs</text><!--MD5=[370719e89e9fb4929a23c03e38639b63]
@startuml
skinparam backgroundColor lightgrey
title
OpenSearch CI Overview
end title

[GitHub]

[Paging]

cloud "Amazon Web Services" {
   [Dashboards\nCloudwatch] as dash
   [Alarms\nCloudwatch] as alarms
   [Jenkins\non EC2] as j
   [Artifacts\nCloudFront/S3] as artifacts
}

:Dev: -down-> GitHub: Create Issues/Pull Requests 
:Dev: -down-> j: See jobs/results

:Maintainer: -up-> dash: Monitoring

alarms -> Paging: Detect issue
Paging -left-> :Maintainer:: Alert for resolution

j -> GitHub: Schedule/Pull\nRequest Builds
j -> artifacts: Save builds/logs
@enduml

PlantUML version 1.2021.11beta6(Unknown compile time)
(GPL source distribution)
Java Runtime: Java(TM) SE Runtime Environment
JVM: Java HotSpot(TM) 64-Bit Server VM
Default Encoding: UTF-8
Language: en
Country: US
--></g></svg>